<svg width="110" height="40" viewBox="0 0 110 40" fill="none" xmlns="http://www.w3.org/2000/svg">
<g clip-path="url(#clip0_555_27135)">
<path d="M42.0183 22.8945H34.4867H29.4798H21.9482C21.9226 22.8945 21.9141 22.9116 21.9141 22.9456V39.9754C21.9141 40.0009 21.9226 40.0094 21.9482 40.0094H26.938C26.9721 40.0094 26.9892 40.0009 26.9892 39.9754V29.6179H29.4457V39.9669C29.4457 39.9924 29.4542 40.0009 29.4798 40.0009H29.4969H34.4782H34.4952C34.5208 40.0009 34.5293 39.9924 34.5293 39.9669V29.6179H36.9859V39.9669C36.9859 39.9924 37.0029 40.0009 37.037 40.0009H42.0268C42.0524 40.0009 42.061 39.9924 42.061 39.9669V22.9371C42.0524 22.9116 42.0439 22.903 42.0183 22.8945Z" fill="white"/>
<path d="M73.5195 22.9453H58.1406V37.5411H63.2584V28.0772H68.3847V40.0006H73.5195V22.9453Z" fill="white"/>
<path d="M79.3279 22.9453H73.4766V28.0772H79.3279V22.9453Z" fill="white"/>
<path d="M93.9992 22.9453H78.6289V40.0006H83.7467V28.0772H88.8815V37.5411H93.9992V22.9453Z" fill="white"/>
<path d="M109.745 22.9453H104.883H102.486H97.3685H95.6797V28.0517H97.3685V34.8942H95.6797V40.0006H97.3685H102.486H104.883H110.001V34.8942V22.9453H109.745ZM102.486 28.0432H104.883V34.8942H102.486V28.0432Z" fill="white"/>
<path d="M63.2584 17.8809C63.2669 10.834 69.0073 5.10638 76.0698 5.10638C83.1323 5.10638 88.8813 10.834 88.8813 17.8809H93.999C93.9905 8 85.9642 0 76.0698 0C66.1755 0 58.1492 8 58.1406 17.8809H63.2584Z" fill="white"/>
<path d="M56.3832 22.8945H43.8447C43.8191 22.8945 43.8105 22.9116 43.8105 22.9456V39.9754C43.8105 40.0009 43.8191 40.0094 43.8447 40.0094H48.8345C48.8686 40.0094 48.8857 40.0009 48.8857 39.9754V33.8307H51.3422V39.9754C51.3422 40.0009 51.3592 40.0094 51.3934 40.0094H56.3832C56.4088 40.0094 56.4173 40.0009 56.4173 39.9754V22.9371C56.4258 22.9116 56.4088 22.903 56.3832 22.8945ZM51.8113 30.3839H48.4251V27.9924H48.9027H51.3336H51.8113V30.3839Z" fill="white"/>
</g>
<defs>
<clipPath id="clip0_555_27135">
<rect width="110" height="40" fill="white"/>
</clipPath>
</defs>
</svg>
